<svg width="106" height="158" viewBox="0 0 106 158" fill="none" xmlns="http://www.w3.org/2000/svg">
<path d="M97.4507 10.1501C97.7477 13.3482 101.521 17.8583 103.591 18.7347C103.622 18.8709 103.66 19.0163 103.703 19.1713C104.193 20.9371 105.73 27.3416 105.891 28.1481C106.133 29.359 106.419 30.5921 106.714 31.821C106.065 30.6414 105.3 29.5372 104.521 28.4414C102.482 25.5735 99.1466 24.3439 95.4679 25.2788C93.4326 25.7961 90.6254 28.0265 92.1617 30.53C92.8248 31.6107 94.2277 32.3993 95.3971 33.0566C95.6219 33.183 95.8381 33.3045 96.0388 33.4223C99.4049 35.3989 104.045 36.9898 107.995 37.3141C108.897 41.6514 108.735 46.0309 108.984 50.4241C109.06 52.758 109.135 55.0633 109.095 57.3643C107.418 52.7833 101.828 45.8632 98.3092 45.869C96.5933 45.8718 94.7961 46.2542 94.2508 48.1804C93.829 49.6703 94.534 51.5985 95.2762 52.8529C96.5744 55.0471 98.6204 56.7869 100.69 58.1539C103.232 59.833 105.954 60.5017 108.964 60.4487C108.917 61.0977 108.858 61.7471 108.783 62.3976C108.414 65.586 107.733 68.7129 107.041 71.8897C106.86 72.7219 106.678 73.5576 106.501 74.3987C106.415 74.8056 106.331 75.2128 106.246 75.62C105.899 77.3699 105.52 79.1211 105.052 80.843C104.871 77.4828 103.1 72.5703 100.032 70.533C97.2829 68.7078 93.843 70.5251 94.3957 73.7959C95.185 78.4666 100.616 81.4995 104.323 83.3213C103.327 86.7288 102.523 90.1256 101.829 93.6219C101.596 94.7967 101.299 96.0787 100.993 97.4009C100.887 97.8577 100.782 98.3146 100.677 98.7717C100.556 98.3135 100.399 97.8402 100.256 97.4078C99.5908 95.3966 99.3337 93.1627 98.0529 91.4264C96.9925 89.9887 95.4055 88.6983 93.883 87.8475C92.624 87.1439 90.8494 86.94 89.6046 87.7526C87.9871 88.8086 87.9078 90.9788 88.2261 92.7292C89.0787 97.4178 96.3587 101.836 99.9244 102.327C99.6821 103.621 99.495 104.874 99.414 106.023C99.025 111.544 98.571 118.031 98.5515 122.835C98.6501 123.419 103.241 123.389 103.304 122.298C103.276 121.687 103.25 121.113 103.226 120.572C103.016 115.941 102.916 113.746 102.663 111.502C102.255 107.886 102.626 102.598 103.131 98.4926C105.795 98.0633 108.456 97.9 111.157 97.779C114.342 97.6363 121.344 97.1799 121.175 92.3137C121.117 90.6717 120.375 89.0189 119.186 87.9266C117.35 86.2401 115.739 85.6691 113.405 86.3784C111.267 87.0282 108.544 89.576 106.958 91.1769C106.376 91.7638 105.842 92.4129 105.307 93.0625C104.769 93.7154 104.231 94.3686 103.645 94.9595C103.704 94.6171 103.762 94.3015 103.819 94.017C104.589 90.137 105.494 86.3965 106.646 82.6342C107.222 80.7539 107.647 78.8336 108.043 76.94C110.026 76.6916 113.593 76.1874 115.477 75.5698C115.595 75.5313 115.719 75.4911 115.849 75.4489C118.707 74.5227 124.369 72.6882 122.753 68.5846C122.331 67.5135 121.479 66.6492 120.492 66.1347C119.158 65.4388 117.921 65.8281 116.604 66.2428C116.418 66.3012 116.231 66.3601 116.042 66.4165C114.467 66.8863 112.89 67.5488 111.627 68.6552C110.725 69.446 109.97 70.394 109.233 71.3582C109.854 68.4947 110.457 65.5806 110.798 62.6305C110.976 61.0936 111.069 59.5473 111.108 57.9998C111.878 58.0855 113.946 57.1537 115.758 56.3376C116.415 56.0416 117.039 55.7608 117.554 55.5493C120.618 54.2921 125.104 51.7085 124.437 47.5774C124.244 46.3781 123.533 43.6337 121.982 43.6269C120.537 43.6206 118.933 44.3747 117.753 45.1595C114.365 47.4135 112.047 52.07 111.125 54.7659C111.107 53.227 111.057 51.6924 111.008 50.1699C110.947 48.2824 110.887 46.4136 110.887 44.5786C110.887 41.6252 110.438 38.8592 109.823 36.0749C109.618 35.1461 109.351 34.17 109.06 33.1857C109.933 33.455 111.519 33.2906 112.249 33.215C112.327 33.207 112.394 33.2 112.451 33.1946C113.689 33.0757 115.021 32.6346 116.129 32.0618C119.476 30.3302 120.771 26.4261 120.94 22.6407C120.998 21.3529 120.295 19.2462 119.106 18.5854C118.438 18.2143 117.707 18.354 117.006 18.4879C116.968 18.4952 116.93 18.5024 116.893 18.5095C113.168 19.2137 110.815 24.4083 109.045 28.313C108.729 29.0106 108.432 29.667 108.149 30.2493C107.622 28.5812 107.133 27.0073 106.879 25.7332C106.581 24.2464 105.524 20.6771 104.728 18.5837C105.349 17.3927 105.074 12.5262 104.613 9.79938C104.58 9.60374 104.548 9.40918 104.517 9.21602C104.134 6.87295 103.785 4.73749 101.594 3.41183C99.4953 2.14235 98.8516 3.41487 98.0638 5.36796C97.4929 6.78354 97.3097 8.63196 97.4507 10.1501Z" fill="#2DAAB2"/>
<path d="M34.8971 54.9442C37.3233 53.7673 39.4047 56.7224 40.5816 59.1486C41.2319 60.4891 41.9549 61.9522 42.7145 63.4633L43.4503 64.9193C45.3658 68.6895 47.6267 74.9165 47.6267 74.9165C47.6267 74.9165 62.2911 81.5989 64.7 80.2827C67.1088 78.9666 56.7075 67.8153 54.7413 62.964C54.2785 61.8068 53.8042 60.6543 53.3429 59.4964C52.3449 56.9913 53.5666 54.1515 56.0717 53.1535C58.5768 52.1554 61.4167 53.3771 62.4147 55.8822C62.8282 56.9202 63.2475 57.9559 63.669 58.9906L63.669 58.9906C65.3933 63.2429 67.7291 69.0031 68.8662 72.5208C69.7734 75.3273 70.7601 78.1074 71.6649 80.9147C72.0587 82.1366 72.4575 83.4201 72.8008 84.6696C74.8739 85.8911 83.916 92.9911 84.9054 90.1042C85.6552 87.9166 75.7176 69.1962 72.551 65.332C71.3168 63.0729 69.8182 60.5405 71.6011 58.5175C73.384 56.4944 74.6704 55.7368 76.6935 57.5197C79.4792 59.9746 81.3474 63.4556 82.6114 66.9217C83.0286 68.0656 83.5144 69.4889 84.0337 71.0739C86.6962 79.2001 93.2446 91.2738 94.1999 93.0224C95.1553 94.7709 98.761 96.0317 101.796 97.193C100.313 89.4601 96.225 79.7161 91.0378 73.8031C89.2595 71.776 89.4612 68.6911 91.4884 66.9128C93.5155 65.1345 96.6004 65.3362 98.3787 67.3633C103.064 72.7046 105.474 79.5635 107.075 85.9879C108.378 91.2173 108.261 101.006 110.347 101.803C111.146 102.109 111.756 102.192 112.47 102.347L122.615 104.533C125.251 105.101 126.927 107.699 126.358 110.335C125.79 112.971 123.192 114.647 120.556 114.078C115.91 113.076 113.893 111.57 109.67 111.605C107.038 111.628 98.535 115.921 93.2965 119.002C89.5915 121.181 85.7507 123.36 82.5347 125.015C80.933 125.84 79.4153 126.572 78.1094 127.114C77.0436 127.557 75.399 128.195 73.8645 128.246C71.1694 128.337 68.9113 126.225 68.8208 123.53C68.6958 119.806 74.3134 119.207 76.9581 118.109C84.4194 115.01 103.413 110.257 101.053 108.585C97.4929 106.063 94.565 105.623 92.4717 105.966C86.6912 106.912 65.2242 116.146 59.3906 118.698C57.073 119.713 54.7279 120.095 52.8992 120.352C50.229 120.729 47.7592 118.87 47.3826 116.199C47.0061 113.529 48.8654 111.059 51.5355 110.683C53.2623 110.439 54.4673 110.194 55.4759 109.752C62.8047 106.545 83.3879 102.371 82.4325 100.622C80.2412 96.6114 72.3896 94.0018 70.899 94.669C68.6893 95.6579 64.5414 98.1577 61.2575 99.9368C58.8825 101.223 56.4738 102.474 54.1065 103.704L54.1054 103.704L51.2588 105.186C50.1526 105.765 49.2154 106.304 48.1578 106.913L48.1576 106.913C47.9122 107.054 47.66 107.199 47.398 107.349C46.0223 108.137 44.4828 108.998 42.4494 109.995C40.0282 111.182 37.103 110.182 35.9158 107.76C34.7285 105.339 35.7288 102.414 38.1499 101.227C42.5088 99.0894 63.5721 93.609 61.9323 90.6078C60.0913 87.2382 53.0131 84.1467 52.2738 84.8875C47.5759 89.5946 42.3504 91.6763 37.0835 95.3716C34.4116 97.2462 30.9109 97.8988 27.4307 95.5788C26.5727 95.0068 25.3417 93.6147 26.8375 91.371C30.2188 86.7108 51.0431 83.2416 45.7732 81.0251C40.5032 78.8086 35.1095 79.1506 31.765 78.737C28.481 79.6269 27.0553 78.9952 23.3754 82.1166C21.319 83.8609 18.7804 84.2686 16.8115 83.0861C9.05167 78.4255 25.4361 76.0902 25.4591 76.0737C23.4452 73.8331 14.9839 69.4993 19.8856 65.8729C22.0916 64.2408 22.5314 69.0107 27.8556 71.5817C33.1798 74.1528 37.9979 74.2208 39.5684 72.1584C41.1365 70.0994 35.7393 65.4766 34.3273 62.5658C33.1504 60.1396 32.4709 56.1212 34.8971 54.9442Z" fill="#F3C26A"/>
</svg>
